PathFileType	4	(x/y/z)	TRC_MarkerData\Passive\Passive_Pref0005.trc
DataRate	CameraRate	NumFrames	NumMarkers	Units	OrigDataRate	OrigDataStartFrame	OrigNumFrames
240	240	11	50	mm	240	153	304
Frame#	Time	R_AC			L_AC			HEAD			STERN			C7			L_IC			R_IC			L_ASIS			R_ASIS			L_GT			R_GT			L_PSIS			R_PSIS			SACRAL			L_LAT_KNEE			L_MED_KNEE			R_LAT_KNEE			R_MED_KNEE			L_LAT_ANK			L_MED_ANK			R_LAT_ANK			R_MED_ANK			L_THIGH_PROX_POST			L_THIGH_PROX_ANT			L_THIGH_DIST_ANT			L_THIGH_DIST_POST			R_THIGH_PROX_POST			R_THIGH_PROX_ANT			R_THIGH_DIST_ANT			R_THIGH_DIST_POST			L_SHANK_PROX_POST			L_SHANK_PROX_ANT			L_SHANK_DIST_ANT			L_SHANK_DIST_POST			R_SHANK_PROX_POST			R_SHANK_PROX_ANT			R_SHANK_DIST_ANT			R_SHANK_DIST_POST			L_HEEL_LAT			L_HEEL_SUP			L_HEEL_MED			R_HEEL_LAT			R_HEEL_SUP			R_HEEL_MED			L_1ST_MET			L_5TH_MET			L_TOE			R_1ST_MET			R_5TH_MET			R_TOE			
		X1	Y1	Z1	X2	Y2	Z2	X3	Y3	Z3	X4	Y4	Z4	X5	Y5	Z5	X6	Y6	Z6	X7	Y7	Z7	X8	Y8	Z8	X9	Y9	Z9	X10	Y10	Z10	X11	Y11	Z11	X12	Y12	Z12	X13	Y13	Z13	X14	Y14	Z14	X15	Y15	Z15	X16	Y16	Z16	X17	Y17	Z17	X18	Y18	Z18	X19	Y19	Z19	X20	Y20	Z20	X21	Y21	Z21	X22	Y22	Z22	X23	Y23	Z23	X24	Y24	Z24	X25	Y25	Z25	X26	Y26	Z26	X27	Y27	Z27	X28	Y28	Z28	X29	Y29	Z29	X30	Y30	Z30	X31	Y31	Z31	X32	Y32	Z32	X33	Y33	Z33	X34	Y34	Z34	X35	Y35	Z35	X36	Y36	Z36	X37	Y37	Z37	X38	Y38	Z38	X39	Y39	Z39	X40	Y40	Z40	X41	Y41	Z41	X42	Y42	Z42	X43	Y43	Z43	X44	Y44	Z44	X45	Y45	Z45	X46	Y46	Z46	X47	Y47	Z47	X48	Y48	Z48	X49	Y49	Z49	X50	Y50	Z50	

153	0.63542	-44.633	1493.6	459.62	-65.921	1527.2	73.237	56.376	1806.1	288.71	41.787	1464.7	260.82	-98.702	1553.7	272.41	-91.535	1063.4	98.112	-52.446	1079	437.9	-23.611	1001	118.27	13.288	1006.1	387.74	-132.18	935.84	80.806	-57.024	936.1	453.45	-213.8	1031.2	240.15	-194.33	1023.6	344.97	-218.75	1002.9	294.31	-240	545.55	119.93	-221.36	549.56	255.91	104.84	545.88	417.73	121.67	550.19	290.97	-481.53	157.86	145.27	-487.34	161.86	224.5	242.31	100.38	372.8	266.78	140.08	279.7	-199.31	806.41	101.3	-140.25	779.36	89.426	-164.26	708.71	101.08	-221.94	736.78	112.19	-15.002	759.62	447.66	47.61	786.37	448.35	71.073	715.89	439.96	8.3677	688.5	434.59	-257.38	495.19	128.73	-212.77	491.15	141.39	-233.36	445.71	148.95	-284.31	448.73	135.57	86.384	370.35	403.53	144.81	402.09	426.64	178.92	336.4	417.34	122.16	302.65	395.28	-568.95	96.581	148.21	-574.57	123.97	182.49	-574.33	92.782	214.61	213.98	25.496	333.64	202.36	48.259	297.16	233.26	35.852	269.69	-354.02	47.771	249.43	-368.06	45.116	143.76	-300.62	44.963	227.34	425.15	152.33	321.3	386.13	107.3	417.08	449.14	174.28	381
154	0.6396	-38.585	1492.6	460.58	-59.94	1526.3	74.225	62.132	1805.2	289.57	47.891	1463.8	261.75	-92.684	1552.7	273.41	-84.85	1062.4	98.438	-45.789	1077.9	438.42	-17.007	999.8	118.57	20.07	1005.5	388.05	-125.79	934.7	81.245	-49.985	935.47	453.89	-207.14	1030	240.61	-187.7	1022.4	345.42	-212.17	1001.7	294.73	-234.64	544.79	120.37	-215.91	548.55	256.31	112.84	545.68	417.37	128.89	550.01	290.75	-479.93	159.41	145.47	-485.65	163.39	224.73	245.34	99.413	372.09	270.08	137.9	278.57	-193.28	805.58	101.84	-134.3	778.4	89.835	-158.48	707.79	101.51	-216.08	736.01	112.77	-7.5338	759.1	447.78	54.968	786.03	448.52	78.647	715.62	439.93	15.975	688.09	434.43	-252.51	494.61	129.15	-207.96	490.15	141.8	-228.99	444.9	149.34	-279.88	448.42	135.96	93.114	370.32	403.63	152.07	401.52	426.04	185.45	335.49	416.55	128.16	302.24	395.16	-567.89	99.044	148.42	-573.2	126.46	182.75	-573.37	95.27	214.83	215.08	25.438	333.41	203.94	48.177	296.77	234.37	34.628	269.32	-353.53	47.898	249.53	-367.68	45.379	143.8	-300.24	44.555	227.41	428.76	147.47	319.23	389.17	103.95	415.52	453.53	169.3	378.76
155	0.64378	-32.561	1491.5	461.54	-53.956	1525.4	75.211	67.888	1804.5	290.43	54.002	1463.1	262.69	-86.669	1551.7	274.41	-78.103	1061.5	98.756	-39.118	1076.8	438.95	-10.361	998.61	118.89	26.855	1005	388.38	-119.35	933.56	81.696	-42.945	934.9	454.34	-200.45	1028.7	241.05	-181.07	1021.3	345.86	-205.59	1000.4	295.14	-229.14	544.01	120.83	-210.32	547.49	256.71	120.79	545.53	417.05	136.03	549.85	290.53	-478.24	161.03	145.69	-483.85	165	224.96	248.28	98.54	371.44	273.29	135.82	277.51	-187.17	804.74	102.4	-128.25	777.42	90.27	-152.59	706.87	101.95	-210.12	735.2	113.36	-0.07779	758.65	447.94	62.321	785.73	448.73	86.197	715.38	439.93	23.547	687.74	434.29	-247.5	494.01	129.58	-203.02	489.12	142.23	-224.49	444.06	149.75	-275.33	448.09	136.36	99.812	370.35	403.79	159.29	401.02	425.48	191.93	334.66	415.81	134.11	301.92	395.08	-566.74	101.66	148.64	-571.7	129.1	183.02	-572.31	97.917	215.06	216.06	25.52	333.23	205.42	48.247	296.43	235.35	33.561	269	-353.03	48.044	249.62	-367.29	45.67	143.85	-299.86	44.132	227.47	432.27	142.58	317.23	392.1	100.59	414	457.84	164.24	376.58
156	0.64796	-26.56	1490.5	462.52	-47.969	1524.5	76.192	73.641	1803.8	291.29	60.117	1462.4	263.65	-80.658	1550.8	275.41	-71.296	1060.5	99.066	-32.442	1075.8	439.47	-3.6757	997.43	119.23	33.634	1004.5	388.72	-112.85	932.41	82.16	-35.916	934.39	454.81	-193.75	1027.6	241.46	-174.45	1020.2	346.28	-199.01	999.23	295.53	-223.48	543.2	121.3	-204.56	546.4	257.12	128.68	545.43	416.77	143.08	549.72	290.31	-476.45	162.74	145.92	-481.94	166.7	225.21	251.12	97.759	370.85	276.41	133.83	276.52	-180.98	803.87	102.98	-122.11	776.45	90.733	-146.58	705.93	102.42	-204.05	734.37	113.96	7.3633	758.26	448.12	69.666	785.49	448.95	93.722	715.2	439.96	31.084	687.45	434.19	-242.34	493.38	130.02	-197.94	488.06	142.67	-219.86	443.2	150.17	-270.63	447.75	136.77	106.47	370.45	404.01	166.46	400.58	424.98	198.37	333.9	415.13	140.02	301.67	395.07	-565.48	104.45	148.87	-570.06	131.91	183.31	-571.15	100.74	215.3	216.96	25.727	333.1	206.8	48.457	296.16	236.22	32.656	268.73	-352.49	48.212	249.72	-366.87	45.99	143.89	-299.46	43.694	227.54	435.67	137.68	315.32	394.93	97.226	412.55	462.04	159.14	374.49
157	0.65215	-20.58	1489.5	463.5	-41.981	1523.6	77.164	79.39	1803.1	292.15	66.238	1461.7	264.61	-74.648	1549.9	276.4	-64.432	1059.6	99.37	-25.77	1074.8	439.99	3.0462	996.27	119.59	40.401	1004.1	389.09	-106.29	931.26	82.637	-28.909	933.95	455.29	-187.04	1026.4	241.85	-167.85	1019.2	346.68	-192.44	998.07	295.9	-217.65	542.35	121.78	-198.64	545.27	257.53	136.52	545.38	416.54	150.06	549.63	290.11	-474.55	164.54	146.16	-479.9	168.49	225.46	253.87	97.066	370.34	279.43	131.97	275.61	-174.68	802.98	103.57	-115.87	775.47	91.226	-140.45	704.98	102.91	-197.86	733.51	114.57	14.787	757.95	448.34	77.001	785.31	449.2	101.22	715.08	440.02	38.586	687.23	434.12	-237.03	492.74	130.47	-192.7	486.96	143.12	-215.08	442.32	150.59	-265.79	447.4	137.19	113.09	370.63	404.3	173.57	400.21	424.53	204.74	333.22	414.51	145.88	301.5	395.12	-564.1	107.42	149.12	-568.27	134.88	183.6	-569.87	103.73	215.56	217.79	26.041	333.02	208.1	48.791	295.96	236.99	31.911	268.52	-351.94	48.402	249.82	-366.42	46.345	143.94	-299.06	43.24	227.6	438.95	132.82	313.51	397.65	93.875	411.18	466.11	154.03	372.51
158	0.65633	-14.621	1488.6	464.48	-35.991	1522.8	78.124	85.133	1802.5	293.02	72.362	1461.1	265.58	-68.641	1549.1	277.39	-57.515	1058.8	99.669	-19.114	1074	440.51	9.8017	995.14	119.97	47.146	1003.8	389.48	-99.674	930.12	83.126	-21.934	933.59	455.79	-180.33	1025.3	242.2	-161.27	1018.3	347.05	-185.88	996.96	296.25	-211.64	541.46	122.27	-192.52	544.09	257.94	144.32	545.4	416.37	156.96	549.59	289.92	-472.53	166.43	146.41	-477.73	170.37	225.72	256.51	96.455	369.91	282.34	130.22	274.8	-168.29	802.06	104.19	-109.51	774.49	91.749	-134.17	704.02	103.42	-191.54	732.61	115.19	22.191	757.72	448.6	84.323	785.2	449.47	108.7	715.03	440.11	46.055	687.09	434.09	-231.55	492.07	130.93	-187.3	485.83	143.57	-210.14	441.41	151.01	-260.79	447.03	137.61	119.65	370.9	404.66	180.62	399.92	424.16	211.04	332.62	413.97	151.68	301.42	395.24	-562.6	110.57	149.38	-566.32	138.04	183.91	-568.46	106.92	215.83	218.55	26.445	332.99	209.32	49.234	295.83	237.67	31.324	268.36	-351.35	48.617	249.92	-365.95	46.739	143.98	-298.64	42.772	227.66	442.1	128.02	311.82	400.26	90.55	409.9	470.04	148.94	370.64
159	0.66051	-8.6818	1487.7	465.47	-29.999	1522.1	79.07	90.868	1802	293.88	78.491	1460.6	266.56	-62.636	1548.3	278.37	-50.548	1058	99.966	-12.483	1073.2	441.03	16.587	994.05	120.38	53.863	1003.5	389.89	-92.996	928.98	83.628	-15	933.31	456.3	-173.61	1024.2	242.51	-154.72	1017.4	347.41	-179.34	995.91	296.57	-205.45	540.53	122.75	-186.22	542.86	258.35	152.07	545.47	416.24	163.81	549.6	289.77	-470.4	168.42	146.67	-475.42	172.35	225.98	259.05	95.92	369.54	285.14	128.59	274.08	-161.8	801.12	104.81	-103.05	773.51	92.303	-127.75	703.06	103.94	-185.09	731.68	115.82	29.572	757.57	448.89	91.629	785.18	449.76	116.14	715.05	440.24	53.493	687.03	434.12	-225.89	491.37	131.39	-181.73	484.65	144.01	-205.05	440.47	151.44	-255.62	446.64	138.04	126.15	371.24	405.08	187.59	399.69	423.86	217.25	332.1	413.5	157.41	301.42	395.43	-560.97	113.92	149.65	-564.19	141.37	184.22	-566.92	110.31	216.12	219.26	26.92	333	210.47	49.77	295.76	238.29	30.89	268.25	-350.74	48.859	250.02	-365.44	47.175	144.03	-298.21	42.292	227.71	445.1	123.3	310.25	402.75	87.267	408.71	473.8	143.89	368.91
160	0.66469	-2.7625	1486.9	466.45	-24.005	1521.4	80.001	96.594	1801.5	294.74	84.621	1460.1	267.54	-56.633	1547.6	279.34	-43.534	1057.2	100.26	-5.8872	1072.4	441.55	23.398	993	120.82	60.547	1003.3	390.34	-86.259	927.85	84.142	-8.1163	933.11	456.84	-166.91	1023.1	242.79	-148.19	1016.6	347.74	-172.82	994.93	296.88	-199.06	539.56	123.24	-179.7	541.57	258.75	159.78	545.61	416.17	170.61	549.67	289.65	-468.13	170.51	146.94	-472.95	174.43	226.25	261.48	95.452	369.26	287.82	127.09	273.46	-155.2	800.16	105.45	-96.454	772.53	92.889	-121.17	702.08	104.49	-178.5	730.71	116.44	36.93	757.5	449.22	98.914	785.24	450.08	123.56	715.16	440.4	60.902	687.05	434.19	-220.05	490.63	131.84	-175.98	483.41	144.45	-199.79	439.49	151.86	-250.28	446.24	138.47	132.57	371.66	405.57	194.47	399.52	423.63	223.37	331.65	413.11	163.04	301.51	395.69	-559.18	117.47	149.94	-561.89	144.89	184.54	-565.23	113.9	216.43	219.93	27.45	333.06	211.56	50.382	295.76	238.85	30.599	268.19	-350.09	49.131	250.11	-364.91	47.66	144.08	-297.77	41.801	227.76	447.95	118.69	308.81	405.12	84.038	407.62	477.38	138.91	367.31
161	0.66887	3.137	1486.1	467.42	-18.006	1520.7	80.912	102.31	1801.1	295.6	90.752	1459.7	268.51	-50.633	1547	280.29	-36.479	1056.5	100.57	0.66496	1071.8	442.08	30.23	992	121.3	67.19	1003.2	390.82	-79.466	926.74	84.67	-1.2889	932.99	457.38	-160.21	1022.1	243.03	-141.69	1016	348.04	-166.31	994.02	297.15	-192.47	538.53	123.71	-172.98	540.22	259.14	167.45	545.81	416.16	177.37	549.8	289.58	-465.71	172.7	147.22	-470.33	176.62	226.53	263.8	95.044	369.05	290.38	125.71	272.95	-148.48	799.17	106.09	-89.738	771.57	93.505	-114.43	701.1	105.06	-171.76	729.71	117.06	44.26	757.53	449.6	106.18	785.39	450.41	130.95	715.35	440.6	68.286	687.17	434.32	-214.02	489.86	132.28	-170.05	482.13	144.87	-194.35	438.47	152.27	-244.76	445.81	138.89	138.91	372.16	406.12	201.26	399.41	423.49	229.37	331.26	412.82	168.58	301.68	396.03	-557.25	121.23	150.25	-559.39	148.6	184.88	-563.37	117.7	216.75	220.57	28.019	333.15	212.59	51.054	295.82	239.35	30.441	268.17	-349.41	49.436	250.2	-364.33	48.197	144.13	-297.3	41.304	227.8	450.63	114.22	307.51	407.36	80.877	406.63	480.77	134.03	365.86
162	0.67305	9.0165	1485.4	468.39	-12.002	1520.2	81.804	108.01	1800.8	296.46	96.883	1459.4	269.49	-44.637	1546.4	281.23	-29.387	1055.9	100.88	7.1657	1071.3	442.6	37.077	991.06	121.81	73.791	1003.2	391.33	-72.618	925.65	85.211	5.4771	932.96	457.95	-153.52	1021.2	243.24	-135.23	1015.4	348.32	-159.82	993.18	297.41	-185.66	537.45	124.17	-166.04	538.8	259.52	175.07	546.07	416.2	184.11	550	289.57	-463.15	175	147.52	-467.53	178.91	226.81	266	94.688	368.91	292.82	124.46	272.53	-141.65	798.15	106.75	-82.893	770.6	94.151	-107.51	700.12	105.65	-164.87	728.67	117.67	51.56	757.63	450.01	113.41	785.63	450.75	138.32	715.64	440.82	75.642	687.36	434.52	-207.79	489.05	132.72	-163.92	480.79	145.29	-188.74	437.42	152.66	-239.05	445.36	139.3	145.14	372.72	406.74	207.95	399.36	423.43	235.26	330.93	412.6	174.01	301.92	396.45	-555.15	125.19	150.57	-556.69	152.51	185.22	-561.35	121.7	217.09	221.17	28.612	333.27	213.55	51.772	295.93	239.81	30.403	268.19	-348.7	49.779	250.28	-363.71	48.794	144.18	-296.81	40.806	227.83	453.14	109.91	306.35	409.47	77.796	405.76	483.96	129.27	364.56
163	0.67723	14.875	1484.7	469.35	-5.9909	1519.6	82.675	113.69	1800.6	297.31	103.01	1459.2	270.46	-38.646	1545.9	282.14	-22.266	1055.3	101.2	13.609	1070.8	443.13	43.933	990.18	122.36	80.344	1003.2	391.88	-65.719	924.59	85.766	12.178	933.01	458.52	-146.85	1020.4	243.41	-128.79	1014.9	348.57	-153.34	992.44	297.64	-178.65	536.31	124.61	-158.88	537.32	259.87	182.65	546.37	416.3	190.82	550.25	289.63	-460.44	177.4	147.82	-464.56	181.3	227.1	268.08	94.377	368.83	295.13	123.32	272.21	-134.7	797.11	107.41	-75.916	769.65	94.826	-100.43	699.13	106.25	-157.83	727.59	118.27	58.825	757.83	450.47	120.61	785.95	451.12	145.64	716.01	441.08	82.97	687.64	434.78	-201.36	488.19	133.14	-157.6	479.39	145.68	-182.93	436.32	153.04	-233.15	444.88	139.71	151.27	373.34	407.41	214.51	399.35	423.45	241.01	330.65	412.48	179.32	302.23	396.93	-552.87	129.36	150.91	-553.78	156.6	185.57	-559.14	125.91	217.44	221.75	29.216	333.41	214.47	52.519	296.1	240.24	30.472	268.24	-347.94	50.163	250.36	-363.04	49.455	144.24	-296.3	40.312	227.85	455.48	105.76	305.32	411.44	74.806	404.99	486.94	124.66	363.39
